<svg width="838" height="320" viewBox="0 0 838 320" fill="none" xmlns="http://www.w3.org/2000/svg">
<g clip-path="url(#clip0)">
<path d="M33.3315 271.519C30.7676 268.441 29.3574 264.465 29.3574 260.489C29.3574 250.998 37.0493 243.174 46.6641 243.174C56.2788 243.174 63.9707 250.87 63.9707 260.489C63.9707 269.98 56.2788 277.804 46.6641 277.804C43.0745 277.804 39.7414 276.777 36.7929 274.725" stroke="#437F7F" stroke-width="0.5" stroke-miterlimit="10"/>
<path d="M45.7666 260.232V298.068" stroke="#437F7F" stroke-width="0.5" stroke-miterlimit="10"/>
<path d="M341.132 0.256348C341.132 0.256348 336.646 1.15414 334.851 5.77138C334.851 5.77138 332.8 1.15414 328.697 0.256348" stroke="#437F7F" stroke-width="0.5" stroke-miterlimit="10"/>
<path d="M359.465 9.10645C359.465 9.10645 354.978 10.0042 353.184 14.6215C353.184 14.6215 351.133 10.0042 347.03 9.10645" stroke="#437F7F" stroke-width="0.5" stroke-miterlimit="10"/>
<path d="M403.052 75.2866C403.052 75.2866 396.258 76.5692 393.565 83.7515C393.565 83.7515 390.489 76.8257 384.207 75.2866" stroke="#437F7F" stroke-width="0.5" stroke-miterlimit="10"/>
<path d="M255.625 307.815C170.759 307.559 84.8666 307.559 0 307.815" stroke="#437F7F" stroke-width="0.5" stroke-miterlimit="10"/>
<path d="M243.574 255.615V307.687H146.272V256.385" stroke="#437F7F" stroke-width="0.5" stroke-miterlimit="10"/>
<path d="M186.27 293.194H190.629C193.962 293.194 196.654 290.501 196.654 287.166V274.212C196.654 270.877 193.962 268.184 190.629 268.184H186.27C182.937 268.184 180.245 270.877 180.245 274.212V287.166C180.245 290.501 182.937 293.194 186.27 293.194Z" stroke="#437F7F" stroke-width="0.5" stroke-miterlimit="10"/>
<path d="M161.528 293.194H165.887C169.22 293.194 171.912 290.501 171.912 287.166V274.212C171.912 270.877 169.22 268.184 165.887 268.184H161.528C158.195 268.184 155.503 270.877 155.503 274.212V287.166C155.503 290.501 158.195 293.194 161.528 293.194Z" stroke="#437F7F" stroke-width="0.5" stroke-miterlimit="10"/>
<path d="M216.653 268.184H224.089C229.601 268.184 234.216 272.673 234.216 278.316V307.815H206.654V278.316C206.526 272.673 211.013 268.184 216.653 268.184Z" stroke="#437F7F" stroke-width="0.5" stroke-miterlimit="10"/>
<path d="M212.166 292.425H212.935C213.961 292.425 214.73 291.655 214.73 290.629V289.218C214.73 288.192 213.961 287.423 212.935 287.423H212.166" stroke="#437F7F" stroke-width="0.5" stroke-miterlimit="10"/>
<path d="M208.962 255.615H138.453V236.89H208.705" stroke="#437F7F" stroke-width="0.5" stroke-miterlimit="10"/>
<path d="M235.626 236.89H251.266V255.615H235.626" stroke="#437F7F" stroke-width="0.5" stroke-miterlimit="10"/>
<path d="M217.935 261.9H226.268C232.549 261.9 237.677 256.769 237.677 250.485V242.148C237.677 235.864 232.549 230.733 226.268 230.733H217.935C211.653 230.733 206.525 235.864 206.525 242.148V250.485C206.525 256.769 211.653 261.9 217.935 261.9Z" fill="#F5C5C0"/>
<path d="M217.294 243.559H219.473V241.379C219.473 239.84 220.627 238.686 222.165 238.686C223.704 238.686 224.857 239.84 224.857 241.379V243.559H227.037C228.575 243.559 229.729 244.714 229.729 246.253C229.729 247.792 228.575 248.946 227.037 248.946H224.857V251.126C224.857 252.665 223.704 253.82 222.165 253.82C220.627 253.82 219.473 252.665 219.473 251.126V248.946H217.294C215.755 248.946 214.602 247.792 214.602 246.253C214.73 244.842 215.884 243.559 217.294 243.559Z" stroke="#437F7F" stroke-width="0.5" stroke-miterlimit="10"/>
<path d="M249.728 246.252H243.446" stroke="#437F7F" stroke-width="0.5" stroke-miterlimit="10"/>
<path d="M201.269 246.252H123.197" stroke="#437F7F" stroke-width="0.5" stroke-miterlimit="10"/>
<path d="M138.453 236.89H122.172V255.615H128.966V307.687H146.273" stroke="#437F7F" stroke-width="0.5" stroke-miterlimit="10"/>
<path d="M138.453 255.615H127.94" stroke="#437F7F" stroke-width="0.5" stroke-miterlimit="10"/>
<path d="M121.274 252.281H88.0713C88.0713 252.281 88.0713 309.483 88.0713 307.431" stroke="#437F7F" stroke-width="0.5" stroke-miterlimit="10"/>
<path d="M416 306.405C349.978 306.148 441.511 306.277 375.874 306.405" stroke="#437F7F" stroke-width="0.5" stroke-miterlimit="10"/>
<path d="M213.192 135.824H205.115C204.731 130.565 200.244 126.333 194.86 126.333C192.552 126.333 190.373 127.102 188.578 128.513C187.04 123.511 182.296 119.792 176.784 119.792C171.4 119.792 166.656 123.383 165.118 128.256C163.195 126.717 160.759 125.691 158.067 125.691C152.298 125.691 147.555 130.18 147.042 135.824H122.685" stroke="#437F7F" stroke-width="0.5" stroke-miterlimit="10"/>
<path d="M347.286 292.297C347.286 296.016 347.799 302.044 347.799 302.044C347.799 306.918 333.697 310.766 316.391 310.766C299.084 310.766 284.982 306.918 284.982 302.044V290.758C284.982 287.808 287.803 285.243 294.982 285.243C302.161 285.243 335.748 286.525 340.748 286.525C343.825 286.653 347.286 288.706 347.286 292.297Z" fill="#BDE8E0"/>
<path d="M353.055 246.252C353.055 240.609 336.646 236.12 316.391 236.12C296.136 236.12 279.727 240.737 279.727 246.252C279.727 251.896 296.136 256.385 316.391 256.385C336.518 256.513 353.055 251.896 353.055 246.252Z" stroke="#437F7F" stroke-width="0.5" stroke-miterlimit="10"/>
<path d="M287.932 246.381C287.932 248.818 300.623 250.613 316.263 250.613C331.903 250.613 344.595 248.69 344.595 246.381C344.595 245.227 341.39 244.072 336.262 243.303" stroke="#437F7F" stroke-width="0.5" stroke-miterlimit="10"/>
<path d="M353.055 246.252V260.489C353.055 266.132 336.646 270.621 316.391 270.621C296.136 270.621 279.727 266.004 279.727 260.489V246.252" stroke="#437F7F" stroke-width="0.5" stroke-miterlimit="10"/>
<path d="M328.313 301.531C332.416 301.018 336.005 300.377 338.954 299.479C344.338 297.94 347.671 295.76 347.671 293.451C347.671 291.912 346.005 291.014 343.441 289.731" stroke="#437F7F" stroke-width="0.5" stroke-miterlimit="10"/>
<path d="M309.084 302.044C311.392 302.172 313.827 302.3 316.391 302.3" stroke="#437F7F" stroke-width="0.5" stroke-miterlimit="10"/>
<path d="M289.982 290.886C289.982 292.553 292.803 294.092 297.29 295.246C300.751 296.144 305.238 296.786 310.238 297.042C312.161 297.17 314.083 297.17 316.135 297.17C318.699 297.17 321.134 297.042 323.442 296.914C334.467 296.144 342.415 293.707 342.415 290.886" stroke="#437F7F" stroke-width="0.5" stroke-miterlimit="10"/>
<path d="M289.982 290.886L282.034 264.08" stroke="#437F7F" stroke-width="0.5" stroke-miterlimit="10"/>
<path d="M342.543 290.886L352.03 262.926" stroke="#437F7F" stroke-width="0.5" stroke-miterlimit="10"/>
<path d="M316.263 250.613C310.622 194.693 321.904 155.19 321.904 155.19" stroke="#437F7F" stroke-width="0.5" stroke-miterlimit="10"/>
<path d="M338.185 153.01C342.672 151.984 346.774 149.932 350.235 146.854C345.877 145.571 341.261 145.186 336.775 146.212C334.723 146.597 332.929 147.367 331.134 148.136C333.698 145.956 336.005 143.391 337.928 140.441C341.261 135.311 343.056 129.539 343.441 123.383C338.057 126.204 333.57 130.18 330.236 135.439C328.314 138.389 326.903 141.595 326.006 144.802C326.006 142.75 325.878 140.826 325.493 138.774C324.468 134.285 322.416 130.18 319.34 126.717C318.058 131.078 317.673 135.695 318.699 140.184C319.34 143.134 319.468 145.186 319.468 146.341C317.16 144.93 314.596 144.032 311.904 143.904C313.186 146.341 314.981 148.265 317.16 149.804C318.571 150.701 319.981 151.343 321.519 151.728C321.263 151.728 320.878 151.728 320.622 151.856C319.212 152.112 318.058 152.882 317.032 153.908C318.314 154.549 319.724 154.677 321.134 154.421C321.775 154.293 323.314 153.651 324.211 153.138C324.083 154.036 324.083 155.832 324.339 156.473C324.596 157.756 325.365 159.038 326.519 159.936C327.032 158.525 327.288 157.243 326.903 155.832C326.775 155.575 326.775 155.19 326.647 154.934C327.673 156.088 328.826 157.243 330.108 158.14C332.416 159.551 334.98 160.449 337.672 160.577C336.39 158.14 334.595 156.216 332.416 154.677C333.826 154.164 335.236 153.651 338.185 153.01Z" stroke="#437F7F" stroke-width="0.5" stroke-miterlimit="10"/>
<path d="M354.337 188.024C356.773 192 360.106 195.078 364.08 197.387C363.952 192.77 362.67 188.409 360.362 184.433C359.337 182.637 358.055 181.098 356.645 179.687C359.593 181.483 362.67 182.766 366.131 183.663C372.028 185.074 378.182 184.946 383.951 183.279C379.464 179.174 374.208 176.096 368.311 174.685C364.977 173.788 361.516 173.531 358.055 173.788C359.978 173.146 361.773 172.377 363.567 171.351C367.541 168.914 370.618 165.579 372.926 161.603C368.311 161.731 363.952 163.014 359.978 165.323C357.414 166.862 355.491 167.631 354.465 168.144C355.106 165.451 354.978 162.886 354.337 160.192C352.542 162.116 351.132 164.425 350.491 167.118C350.107 168.657 349.978 170.196 350.107 171.864C349.978 171.607 349.85 171.222 349.722 170.966C349.081 169.812 347.927 168.914 346.645 168.273C346.517 169.683 346.773 171.094 347.414 172.248C347.799 172.89 348.825 174.044 349.594 174.685C348.696 174.942 347.03 175.455 346.517 175.84C345.363 176.609 344.466 177.635 343.953 179.046C345.363 179.174 346.773 178.918 347.927 178.148C348.184 178.02 348.44 177.764 348.696 177.635C347.927 178.918 347.286 180.457 346.902 181.996C346.261 184.689 346.389 187.255 347.03 189.948C348.825 188.024 350.235 185.715 350.876 183.022C351.773 184.305 352.799 185.459 354.337 188.024Z" stroke="#437F7F" stroke-width="0.5" stroke-miterlimit="10"/>
<path d="M295.11 168.273C296.264 163.784 296.264 159.166 295.11 154.806C291.905 158.14 289.598 161.988 288.444 166.477C287.931 168.401 287.675 170.453 287.675 172.377C286.906 169.042 285.624 165.836 283.957 162.758C280.88 157.499 276.522 153.267 271.266 150.188C271.394 156.217 272.932 162.116 276.009 167.375C277.804 170.453 279.983 173.018 282.419 175.327C280.624 174.429 278.829 173.659 276.778 173.146C272.291 171.992 267.676 171.992 263.317 173.146C266.651 176.353 270.496 178.661 274.983 179.816C277.804 180.585 279.727 181.483 280.88 181.868C278.573 183.279 276.65 185.203 275.368 187.511C278.06 187.511 280.624 186.742 283.06 185.459C284.47 184.689 285.624 183.663 286.777 182.509C286.649 182.766 286.521 183.15 286.393 183.407C286.008 184.689 286.136 186.1 286.649 187.511C287.803 186.613 288.572 185.459 288.957 184.176C289.085 183.535 289.213 181.996 289.213 180.842C289.982 181.355 291.521 182.124 292.162 182.253C293.444 182.637 294.854 182.381 296.264 181.868C295.367 180.714 294.213 179.944 292.803 179.687C292.546 179.559 292.162 179.559 291.905 179.559C293.444 179.174 294.982 178.661 296.264 177.892C298.572 176.481 300.495 174.557 301.777 172.249C299.084 172.249 296.52 173.018 294.085 174.301C294.213 172.633 294.341 171.094 295.11 168.273Z" stroke="#437F7F" stroke-width="0.5" stroke-miterlimit="10"/>
<path d="M285.239 208.417C282.291 207.647 279.342 207.647 276.522 208.417C278.701 210.469 281.265 212.008 284.085 212.777C285.367 213.162 286.649 213.29 287.931 213.29C285.752 213.803 283.701 214.573 281.778 215.727C278.317 217.779 275.624 220.601 273.573 223.936C277.547 223.807 281.265 222.91 284.726 220.858C286.649 219.703 288.444 218.292 289.854 216.625C289.213 217.779 288.701 218.934 288.444 220.216C287.675 223.166 287.675 226.116 288.444 228.938C290.495 226.757 292.034 224.192 292.803 221.371C293.316 219.447 293.828 218.292 294.085 217.523C294.982 219.062 296.264 220.216 297.674 221.114C297.674 219.319 297.162 217.651 296.264 216.112C295.751 215.214 295.11 214.445 294.341 213.675C294.469 213.803 294.726 213.803 294.982 213.932C295.88 214.188 296.777 214.06 297.674 213.803C297.033 213.034 296.392 212.521 295.495 212.264C295.11 212.136 294.085 212.008 293.316 212.136C293.7 211.623 294.085 210.597 294.213 210.212C294.469 209.314 294.341 208.417 293.957 207.519C293.187 208.16 292.675 208.93 292.546 209.699C292.546 209.956 292.418 210.084 292.418 210.341C292.162 209.315 291.777 208.417 291.264 207.519C290.367 205.98 289.085 204.826 287.675 203.928C287.675 205.723 288.188 207.391 289.085 208.93C288.06 208.93 287.162 208.93 285.239 208.417Z" stroke="#437F7F" stroke-width="0.5" stroke-miterlimit="10"/>
<path d="M338.313 217.523C341.518 218.934 344.851 219.575 348.312 219.319C346.261 216.497 343.697 214.317 340.492 212.778C339.082 212.136 337.672 211.623 336.134 211.367C338.698 211.238 341.262 210.725 343.697 209.828C348.056 208.289 351.774 205.595 354.722 202.004C350.235 201.234 345.62 201.619 341.262 203.287C338.826 204.184 336.518 205.467 334.467 207.006C335.364 205.852 336.262 204.569 336.903 203.158C338.313 199.952 338.954 196.617 338.698 193.154C335.877 195.206 333.698 197.772 332.16 200.978C331.262 203.03 330.365 204.313 329.852 205.082C329.083 203.158 327.929 201.491 326.391 200.208C326.134 202.261 326.262 204.184 326.903 206.108C327.288 207.262 327.929 208.289 328.698 209.186C328.442 209.058 328.314 208.93 328.057 208.802C327.16 208.289 326.006 208.289 324.98 208.417C325.493 209.443 326.262 210.084 327.16 210.597C327.673 210.854 328.826 211.11 329.596 211.238C329.083 211.751 328.314 212.778 328.185 213.291C327.801 214.188 327.673 215.343 327.929 216.369C328.826 215.856 329.596 215.086 330.108 214.06C330.237 213.804 330.237 213.547 330.365 213.419C330.365 214.573 330.621 215.727 331.006 216.882C331.775 218.806 332.929 220.473 334.467 221.755C334.723 219.703 334.595 217.78 333.954 215.856C335.108 216.24 336.262 216.625 338.313 217.523Z" stroke="#437F7F" stroke-width="0.5" stroke-miterlimit="10"/>
<path d="M315.494 197.515C319.084 170.838 346.774 174.044 346.774 174.044" stroke="#437F7F" stroke-width="0.5" stroke-miterlimit="10"/>
<path d="M314.853 207.904C315.237 198.157 290.495 190.718 290.495 181.74" stroke="#437F7F" stroke-width="0.5" stroke-miterlimit="10"/>
<path d="M294.982 211.495C302.161 206.236 314.34 213.034 314.725 223.936" stroke="#437F7F" stroke-width="0.5" stroke-miterlimit="10"/>
<path d="M314.725 219.062C317.16 210.597 326.134 214.83 328.057 211.751" stroke="#437F7F" stroke-width="0.5" stroke-miterlimit="10"/>
<path d="M271.266 309.354C270.881 309.354 270.625 309.354 270.368 309.354C274.599 315.254 294.085 319.743 317.545 319.743C339.979 319.743 358.696 315.639 364.08 310.124C361.004 309.996 358.055 309.868 354.978 309.611" stroke="#437F7F" stroke-width="0.5" stroke-miterlimit="10"/>
<path d="M391.386 270.75C395.232 270.75 398.437 267.543 398.437 263.696V238.814C398.437 234.966 395.232 231.76 391.386 231.76C387.54 231.76 384.335 234.966 384.335 238.814V263.696C384.335 267.543 387.54 270.75 391.386 270.75Z" stroke="#437F7F" stroke-width="0.5" stroke-miterlimit="10"/>
<path d="M391.386 244.201C393.227 244.201 394.719 242.708 394.719 240.866C394.719 239.024 393.227 237.531 391.386 237.531C389.545 237.531 388.053 239.024 388.053 240.866C388.053 242.708 389.545 244.201 391.386 244.201Z" stroke="#437F7F" stroke-width="0.5" stroke-miterlimit="10"/>
<path d="M391.386 254.589C393.227 254.589 394.719 253.096 394.719 251.255C394.719 249.413 393.227 247.92 391.386 247.92C389.545 247.92 388.053 249.413 388.053 251.255C388.053 253.096 389.545 254.589 391.386 254.589Z" stroke="#437F7F" stroke-width="0.5" stroke-miterlimit="10"/>
<path d="M391.386 264.978C393.227 264.978 394.719 263.485 394.719 261.644C394.719 259.802 393.227 258.309 391.386 258.309C389.545 258.309 388.053 259.802 388.053 261.644C388.053 263.485 389.545 264.978 391.386 264.978Z" stroke="#437F7F" stroke-width="0.5" stroke-miterlimit="10"/>
<path d="M391.386 270.75V297.042" stroke="#437F7F" stroke-width="0.5" stroke-miterlimit="10"/>
<path d="M395.36 297.042H387.283" stroke="#437F7F" stroke-width="0.5" stroke-miterlimit="10"/>
</g>
<g clip-path="url(#clip1)">
<path d="M712.799 271.075C710.516 268.329 709.261 264.783 709.261 261.236C709.261 252.77 716.109 245.791 724.668 245.791C733.114 245.791 740.076 252.655 740.076 261.236C740.076 269.702 733.228 276.681 724.668 276.681C721.473 276.681 718.505 275.766 715.88 273.935" stroke="#437F7F" stroke-width="0.5" stroke-miterlimit="10"/>
<path d="M723.869 261.007V294.644" stroke="#437F7F" stroke-width="0.5" stroke-miterlimit="10"/>
<path d="M669.543 176.572C669.543 176.572 665.549 177.373 663.951 181.492C663.951 181.492 662.125 177.373 658.473 176.572" stroke="#437F7F" stroke-width="0.5" stroke-miterlimit="10"/>
<path d="M657.674 165.36C657.674 165.36 651.625 166.504 649.228 172.911C649.228 172.911 646.489 166.733 640.896 165.36" stroke="#437F7F" stroke-width="0.5" stroke-miterlimit="10"/>
<path d="M504.169 234.807C502.913 237.896 500.174 240.299 495.951 240.299C495.609 240.299 495.152 240.299 494.81 240.184C494.582 240.184 494.239 240.299 494.011 240.299C489.674 240.299 486.935 237.896 485.794 234.807H444.479V306.771H529.734V234.807H504.169Z" fill="#BDE8E0"/>
<path d="M647.174 267.643H558.152V306.771H647.174V267.643Z" fill="#BDE8E0"/>
<path d="M681.413 306.657C537.152 306.428 563.973 306.428 420.511 306.657" stroke="#437F7F" stroke-width="0.5" stroke-miterlimit="10"/>
<path d="M816.315 306.657H689.06" stroke="#437F7F" stroke-width="0.5" stroke-miterlimit="10"/>
<path d="M449.842 68.9124C460.306 68.9124 468.788 60.4093 468.788 49.9203C468.788 39.4313 460.306 30.9282 449.842 30.9282C439.379 30.9282 430.896 39.4313 430.896 49.9203C430.896 60.4093 439.379 68.9124 449.842 68.9124Z" fill="#FED373"/>
<path d="M449.843 18V23.034" stroke="#437F7F" stroke-width="0.5" stroke-miterlimit="10"/>
<path d="M449.843 76.8066V81.8407" stroke="#437F7F" stroke-width="0.5" stroke-miterlimit="10"/>
<path d="M418 49.9204H423.022" stroke="#437F7F" stroke-width="0.5" stroke-miterlimit="10"/>
<path d="M476.663 49.9204H481.685" stroke="#437F7F" stroke-width="0.5" stroke-miterlimit="10"/>
<path d="M427.358 27.3818L430.896 30.9286" stroke="#437F7F" stroke-width="0.5" stroke-miterlimit="10"/>
<path d="M468.788 68.9126L472.44 72.5737" stroke="#437F7F" stroke-width="0.5" stroke-miterlimit="10"/>
<path d="M427.358 72.5737L430.896 68.9126" stroke="#437F7F" stroke-width="0.5" stroke-miterlimit="10"/>
<path d="M468.788 30.9286L472.44 27.3818" stroke="#437F7F" stroke-width="0.5" stroke-miterlimit="10"/>
<path d="M647.174 267.872V306.771H572.532V268.444" stroke="#437F7F" stroke-width="0.5" stroke-miterlimit="10"/>
<path d="M585.315 286.978H607.456C609.624 286.978 611.336 285.262 611.336 283.088V280.228C611.336 278.054 609.624 276.338 607.456 276.338H585.429C583.26 276.338 581.548 278.054 581.548 280.228V283.088C581.434 285.262 583.146 286.978 585.315 286.978Z" fill="white" stroke="#437F7F" stroke-width="0.5" stroke-miterlimit="10"/>
<path d="M626.63 276.338H632.337C636.559 276.338 640.097 279.77 640.097 284.118V306.771H618.869V284.118C618.869 279.77 622.293 276.338 626.63 276.338Z" stroke="#437F7F" stroke-width="0.5" stroke-miterlimit="10"/>
<path d="M623.092 294.987H623.662C624.461 294.987 625.032 294.415 625.032 293.614V292.584C625.032 291.783 624.461 291.211 623.662 291.211H623.092" stroke="#437F7F" stroke-width="0.5" stroke-miterlimit="10"/>
<path d="M599.695 267.872H566.598V255.744H599.695" stroke="#437F7F" stroke-width="0.5" stroke-miterlimit="10"/>
<path d="M599.239 255.744H653.109V267.872H599.239" stroke="#437F7F" stroke-width="0.5" stroke-miterlimit="10"/>
<path d="M651.967 261.808H645.005" stroke="#437F7F" stroke-width="0.5" stroke-miterlimit="10"/>
<path d="M640.668 261.808H567.168" stroke="#437F7F" stroke-width="0.5" stroke-miterlimit="10"/>
<path d="M605.63 294.987H586.57" stroke="#437F7F" stroke-width="0.5" stroke-miterlimit="10"/>
<path d="M596.043 294.987V306.771" stroke="#437F7F" stroke-width="0.5" stroke-miterlimit="10"/>
<path d="M613.277 292.355L611.337 299.907H604.146V305.856" stroke="#437F7F" stroke-width="0.5" stroke-miterlimit="10"/>
<path d="M611.337 299.907V305.856" stroke="#437F7F" stroke-width="0.5" stroke-miterlimit="10"/>
<path d="M578.81 292.355L580.864 299.907H588.054V305.856" stroke="#437F7F" stroke-width="0.5" stroke-miterlimit="10"/>
<path d="M580.864 299.907V305.856" stroke="#437F7F" stroke-width="0.5" stroke-miterlimit="10"/>
<path d="M565.799 255.744H552.445V267.872H558.038V306.771H571.962" stroke="#437F7F" stroke-width="0.5" stroke-miterlimit="10"/>
<path d="M565.912 267.872C566.026 267.986 558.151 267.872 558.151 267.872" stroke="#437F7F" stroke-width="0.5" stroke-miterlimit="10"/>
<path d="M491.842 287.55H498.119C502.799 287.55 506.679 291.44 506.679 296.131V306.314H483.282V296.131C483.282 291.44 487.163 287.55 491.842 287.55Z" stroke="#437F7F" stroke-width="0.5" stroke-miterlimit="10"/>
<path d="M495.038 240.299C501.201 240.299 506.223 235.265 506.223 229.087C506.223 222.909 501.201 217.875 495.038 217.875C488.875 217.875 483.854 222.909 483.854 229.087C483.854 235.265 488.875 240.299 495.038 240.299Z" stroke="#437F7F" stroke-width="0.5" stroke-miterlimit="10"/>
<path d="M529.734 234.807V306.657H460.229V235.265" stroke="#437F7F" stroke-width="0.5" stroke-miterlimit="10"/>
<path d="M485.451 234.807H454.75V223.48H485.451" stroke="#437F7F" stroke-width="0.5" stroke-miterlimit="10"/>
<path d="M505.195 223.48H535.212V234.807H505.195" stroke="#437F7F" stroke-width="0.5" stroke-miterlimit="10"/>
<path d="M534.184 229.086H512.157" stroke="#437F7F" stroke-width="0.5" stroke-miterlimit="10"/>
<path d="M477.804 229.086H454.75" stroke="#437F7F" stroke-width="0.5" stroke-miterlimit="10"/>
<path d="M495.038 287.55V306.657" stroke="#437F7F" stroke-width="0.5" stroke-miterlimit="10"/>
<path d="M522.087 293.156H514.098C512.957 293.156 512.044 292.241 512.044 291.097V289.61C512.044 288.466 512.957 287.55 514.098 287.55H522.087C523.229 287.55 524.142 288.466 524.142 289.61V291.097C524.142 292.241 523.229 293.156 522.087 293.156Z" stroke="#437F7F" stroke-width="0.5" stroke-miterlimit="10"/>
<path d="M522.087 302.538H514.098C512.957 302.538 512.044 301.623 512.044 300.479V298.992C512.044 297.847 512.957 296.932 514.098 296.932H522.087C523.229 296.932 524.142 297.847 524.142 298.992V300.479C524.142 301.623 523.229 302.538 522.087 302.538Z" stroke="#437F7F" stroke-width="0.5" stroke-miterlimit="10"/>
<path d="M475.75 293.156H467.76C466.619 293.156 465.706 292.241 465.706 291.097V289.61C465.706 288.466 466.619 287.55 467.76 287.55H475.75C476.891 287.55 477.804 288.466 477.804 289.61V291.097C477.804 292.241 476.891 293.156 475.75 293.156Z" stroke="#437F7F" stroke-width="0.5" stroke-miterlimit="10"/>
<path d="M475.75 302.538H467.76C466.619 302.538 465.706 301.623 465.706 300.479V298.992C465.706 297.847 466.619 296.932 467.76 296.932H475.75C476.891 296.932 477.804 297.847 477.804 298.992V300.479C477.804 301.623 476.891 302.538 475.75 302.538Z" stroke="#437F7F" stroke-width="0.5" stroke-miterlimit="10"/>
<path d="M474.608 277.826H515.353C520.261 277.826 524.141 273.821 524.141 269.016V258.147C524.141 253.227 520.146 249.337 515.353 249.337H474.608C469.701 249.337 465.82 253.342 465.82 258.147V269.016C465.82 273.821 469.701 277.826 474.608 277.826Z" fill="#FDFFFF" stroke="#437F7F" stroke-width="0.5" stroke-miterlimit="10"/>
<path d="M494.924 277.254V250.367" stroke="#437F7F" stroke-width="0.5" stroke-miterlimit="10"/>
<path d="M509.532 277.254V250.367" stroke="#437F7F" stroke-width="0.5" stroke-miterlimit="10"/>
<path d="M480.315 277.254V250.367" stroke="#437F7F" stroke-width="0.5" stroke-miterlimit="10"/>
<path d="M524.141 263.524H466.277" stroke="#437F7F" stroke-width="0.5" stroke-miterlimit="10"/>
<path d="M455.321 223.48H439.229V234.807H444.479V306.657H459.658" stroke="#437F7F" stroke-width="0.5" stroke-miterlimit="10"/>
<path d="M455.321 229.087H439.229" stroke="#437F7F" stroke-width="0.5" stroke-miterlimit="10"/>
<path d="M455.321 234.807H439.229" stroke="#437F7F" stroke-width="0.5" stroke-miterlimit="10"/>
<path d="M552.674 260.549H542.973V305.856" stroke="#437F7F" stroke-width="0.5" stroke-miterlimit="10"/>
<path d="M554.728 255.744V240.985H529.733" stroke="#437F7F" stroke-width="0.5" stroke-miterlimit="10"/>
<path d="M444.022 261.808H426.218" stroke="#437F7F" stroke-width="0.5" stroke-miterlimit="10"/>
<path d="M449.842 62.5057C456.776 62.5057 462.397 56.8711 462.397 49.9206C462.397 42.97 456.776 37.3354 449.842 37.3354C442.909 37.3354 437.288 42.97 437.288 49.9206C437.288 56.8711 442.909 62.5057 449.842 62.5057Z" stroke="#437F7F" stroke-width="0.5" stroke-miterlimit="10"/>
<path d="M619.782 126.232H607.342C606.657 118.109 599.809 111.588 591.478 111.588C587.826 111.588 584.516 112.846 581.777 114.906C579.266 107.126 572.076 101.52 563.516 101.52C555.07 101.52 547.994 107.011 545.369 114.562C542.402 112.16 538.636 110.672 534.527 110.672C525.625 110.672 518.206 117.651 517.521 126.461H479.858" stroke="#437F7F" stroke-width="0.5" stroke-miterlimit="10"/>
<path d="M838 162.385H828.984C828.527 156.436 823.506 151.745 817.457 151.745C814.832 151.745 812.321 152.661 810.381 154.148C808.555 148.427 803.305 144.309 797.027 144.309C790.864 144.309 785.614 148.313 783.788 153.805C781.62 151.974 778.881 150.944 775.799 150.944C769.294 150.944 763.93 155.978 763.359 162.5H735.854" stroke="#437F7F" stroke-width="0.5" stroke-miterlimit="10"/>
</g>
<defs>
<clipPath id="clip0">
<rect width="416" height="320" fill="white"/>
</clipPath>
<clipPath id="clip1">
<rect width="420" height="289" fill="white" transform="translate(418 18)"/>
</clipPath>
</defs>
</svg>
