<svg width="465" height="232" viewBox="0 0 465 232" fill="none" xmlns="http://www.w3.org/2000/svg">
<g clip-path="url(#clip0)">
<path d="M10.1558 168.209C7.72476 165.298 6.3877 161.539 6.3877 157.779C6.3877 148.805 13.6808 141.407 22.7971 141.407C31.9134 141.407 39.2065 148.684 39.2065 157.779C39.2065 166.754 31.9134 174.152 22.7971 174.152C19.3937 174.152 16.2333 173.181 13.4377 171.241" stroke="#437F7F" stroke-width="0.5" stroke-miterlimit="10"/>
<path d="M21.9463 157.416V193.192" stroke="#437F7F" stroke-width="0.5" stroke-miterlimit="10"/>
<path d="M358.521 0.242432C358.521 0.242432 352.079 1.45519 349.527 8.24661C349.527 8.24661 346.609 1.69774 340.653 0.242432" stroke="#437F7F" stroke-width="0.5" stroke-miterlimit="10"/>
<path d="M187.864 38.8081H180.206C179.842 33.8358 175.587 29.8337 170.482 29.8337C168.294 29.8337 166.228 30.5614 164.526 31.8954C163.067 27.1657 158.57 23.6487 153.343 23.6487C148.238 23.6487 143.741 27.0444 142.282 31.6529C140.459 30.1976 138.15 29.2274 135.597 29.2274C130.127 29.2274 125.63 33.472 125.144 38.8081H102.049" stroke="#437F7F" stroke-width="0.5" stroke-miterlimit="10"/>
<path d="M399.362 170.756C404.467 172.575 407.385 174.879 407.385 177.426C407.385 183.611 389.274 188.583 366.908 188.583C344.543 188.583 326.432 183.611 326.432 177.426C326.432 174.879 329.592 172.454 334.94 170.513" fill="#FED373"/>
<path d="M407.507 163.722C407.507 169.907 389.396 174.879 367.03 174.879C344.665 174.879 326.554 169.907 326.554 163.722" stroke="#437F7F" stroke-width="0.5" stroke-miterlimit="10"/>
<path d="M350.256 68.8846C350.256 66.3378 357.67 64.2761 366.908 64.2761C376.146 64.2761 383.561 66.3378 383.561 68.8846C383.561 70.3399 381.13 71.6739 377.362 72.5229C374.566 73.1292 370.92 73.4931 366.908 73.4931C363.14 73.4931 359.737 73.1292 356.941 72.5229" stroke="#437F7F" stroke-width="0.5" stroke-miterlimit="10"/>
<path d="M343.936 161.782C343.936 158.265 354.267 155.475 366.909 155.475C379.55 155.475 389.882 158.265 389.882 161.782C389.882 165.299 379.55 168.088 366.909 168.088" stroke="#437F7F" stroke-width="0.5" stroke-miterlimit="10"/>
<path d="M383.439 77.9802C383.439 79.5568 380.643 80.8908 376.268 81.7398" stroke="#437F7F" stroke-width="0.5" stroke-miterlimit="10"/>
<path d="M383.439 86.3481C383.439 87.9247 380.643 89.2588 376.268 90.1077" stroke="#437F7F" stroke-width="0.5" stroke-miterlimit="10"/>
<path d="M383.439 94.7163C383.439 96.2929 380.643 97.6269 376.268 98.4758" stroke="#437F7F" stroke-width="0.5" stroke-miterlimit="10"/>
<path d="M383.439 103.084C383.439 104.661 380.643 105.995 376.268 106.844" stroke="#437F7F" stroke-width="0.5" stroke-miterlimit="10"/>
<path d="M384.169 110.967C384.169 112.544 380.644 114.363 376.39 115.212" stroke="#437F7F" stroke-width="0.5" stroke-miterlimit="10"/>
<path d="M384.29 180.701C379.306 181.428 373.35 181.913 366.908 181.913" stroke="#437F7F" stroke-width="0.5" stroke-miterlimit="10"/>
<path d="M397.54 171.484C398.755 172.333 399.363 173.182 399.363 174.152C399.363 175.971 396.689 177.669 392.191 179.003" stroke="#437F7F" stroke-width="0.5" stroke-miterlimit="10"/>
<path d="M350.256 68.8845C350.256 68.8845 350.256 88.4099 350.256 105.995C350.256 123.58 326.311 144.197 326.311 163.722" stroke="#437F7F" stroke-width="0.5" stroke-miterlimit="10"/>
<path d="M383.561 68.8845C383.561 68.8845 383.561 88.4099 383.561 105.995C383.561 123.58 407.506 144.197 407.506 163.722" stroke="#437F7F" stroke-width="0.5" stroke-miterlimit="10"/>
<path d="M341.262 129.765C355.848 122.973 379.793 143.712 395.595 135.465" stroke="#437F7F" stroke-width="0.5" stroke-miterlimit="10"/>
<path d="M395.473 134.373C394.987 132.797 388.059 123.337 362.29 131.099" stroke="#437F7F" stroke-width="0.5" stroke-miterlimit="10"/>
<path d="M358.279 141.165C358.279 142.62 357.063 143.833 355.605 143.833C354.146 143.833 352.931 142.62 352.931 141.165C352.931 139.709 354.146 138.497 355.605 138.497C357.063 138.497 358.279 139.709 358.279 141.165Z" stroke="#437F7F" stroke-width="0.5" stroke-miterlimit="10"/>
<path d="M349.405 149.654C349.405 150.745 348.433 151.716 347.339 151.716C346.245 151.716 345.272 150.745 345.272 149.654C345.272 148.562 346.245 147.592 347.339 147.592C348.433 147.592 349.405 148.562 349.405 149.654Z" stroke="#437F7F" stroke-width="0.5" stroke-miterlimit="10"/>
<path d="M401.915 231.03C259.7 231.636 118.701 231.636 -24 231.757" stroke="#437F7F" stroke-width="0.5" stroke-miterlimit="10"/>
<path d="M288.63 170.998C292.276 170.998 295.315 167.966 295.315 164.328V140.801C295.315 137.163 292.276 134.131 288.63 134.131C284.983 134.131 281.944 137.163 281.944 140.801V164.328C281.944 168.088 284.983 170.998 288.63 170.998Z" stroke="#437F7F" stroke-width="0.5" stroke-miterlimit="10"/>
<path d="M288.63 145.894C290.375 145.894 291.79 144.482 291.79 142.741C291.79 141 290.375 139.588 288.63 139.588C286.885 139.588 285.47 141 285.47 142.741C285.47 144.482 286.885 145.894 288.63 145.894Z" stroke="#437F7F" stroke-width="0.5" stroke-miterlimit="10"/>
<path d="M288.63 155.718C290.375 155.718 291.79 154.306 291.79 152.565C291.79 150.823 290.375 149.411 288.63 149.411C286.885 149.411 285.47 150.823 285.47 152.565C285.47 154.306 286.885 155.718 288.63 155.718Z" stroke="#437F7F" stroke-width="0.5" stroke-miterlimit="10"/>
<path d="M288.63 165.541C290.375 165.541 291.79 164.129 291.79 162.388C291.79 160.646 290.375 159.235 288.63 159.235C286.885 159.235 285.47 160.646 285.47 162.388C285.47 164.129 286.885 165.541 288.63 165.541Z" stroke="#437F7F" stroke-width="0.5" stroke-miterlimit="10"/>
<path d="M288.63 170.998V195.86" stroke="#437F7F" stroke-width="0.5" stroke-miterlimit="10"/>
<path d="M292.398 195.86H284.74" stroke="#437F7F" stroke-width="0.5" stroke-miterlimit="10"/>
<path d="M464.757 187.249C459.044 195.253 442.878 204.955 433.518 204.955C424.159 204.955 130.856 204.956 -24 205.926" stroke="#437F7F" stroke-width="0.5" stroke-miterlimit="10"/>
<path d="M132.071 187.492H100.711" stroke="#437F7F" stroke-width="0.5" stroke-miterlimit="10"/>
<path d="M87.5833 187.492C82.9644 187.492 79.1963 183.733 79.1963 179.124V172.09H146.9C151.155 172.09 154.68 175.607 154.68 179.852C154.68 184.096 151.155 187.613 146.9 187.613H144.955" stroke="#437F7F" stroke-width="0.5" stroke-miterlimit="10"/>
<path d="M100.59 190.059C101.308 186.513 99.0095 183.058 95.4562 182.342C91.903 181.625 88.4403 183.919 87.7222 187.464C87.004 191.009 89.3024 194.464 92.8557 195.18C96.409 195.897 99.8716 193.604 100.59 190.059Z" stroke="#437F7F" stroke-width="0.5" stroke-miterlimit="10"/>
<path d="M144.811 190.27C145.636 186.748 143.443 183.225 139.913 182.402C136.383 181.579 132.852 183.767 132.027 187.289C131.202 190.811 133.395 194.334 136.925 195.157C140.455 195.98 143.986 193.792 144.811 190.27Z" stroke="#437F7F" stroke-width="0.5" stroke-miterlimit="10"/>
<path d="M124.778 159.599H84.3019C81.3847 159.599 79.0752 161.903 79.0752 164.813V171.969H139L136.083 166.39C133.895 162.267 129.519 159.599 124.778 159.599Z" stroke="#437F7F" stroke-width="0.5" stroke-miterlimit="10"/>
<path d="M118.215 177.426H123.928" stroke="#437F7F" stroke-width="0.5" stroke-miterlimit="10"/>
<path d="M101.684 177.426H107.396" stroke="#437F7F" stroke-width="0.5" stroke-miterlimit="10"/>
<path d="M94.877 160.205V171.969" stroke="#437F7F" stroke-width="0.5" stroke-miterlimit="10"/>
<path d="M169.388 187.492H147.63" stroke="#437F7F" stroke-width="0.5" stroke-miterlimit="10"/>
<path d="M156.624 171.969H169.265C173.52 171.969 177.045 175.486 177.045 179.73C177.045 183.975 173.52 187.492 169.265 187.492H167.321" stroke="#437F7F" stroke-width="0.5" stroke-miterlimit="10"/>
<path d="M123.198 187.856C123.198 188.098 123.198 188.462 123.198 188.705C123.198 192.343 120.281 195.254 116.634 195.254C112.988 195.254 110.07 192.343 110.07 188.705C110.07 188.341 110.07 187.856 110.192 187.492" stroke="#437F7F" stroke-width="0.5" stroke-miterlimit="10"/>
<path d="M167.32 187.492C167.442 187.856 167.442 188.341 167.442 188.705C167.442 192.343 164.525 195.254 160.878 195.254C157.232 195.254 154.314 192.343 154.314 188.705C154.314 188.22 154.314 187.856 154.436 187.492" stroke="#437F7F" stroke-width="0.5" stroke-miterlimit="10"/>
<path d="M144.955 171.969H161.486L158.569 166.39C156.381 162.145 152.005 159.599 147.265 159.599H123.927" stroke="#437F7F" stroke-width="0.5" stroke-miterlimit="10"/>
<path d="M161.973 179.73C161.973 180.701 161.243 181.428 160.271 181.428C159.299 181.428 158.569 180.701 158.569 179.73C158.569 178.76 159.299 178.032 160.271 178.032C161.243 178.032 161.973 178.76 161.973 179.73Z" stroke="#437F7F" stroke-width="0.5" stroke-miterlimit="10"/>
<path d="M172.791 179.73C172.791 180.701 172.062 181.428 171.089 181.428C170.117 181.428 169.388 180.701 169.388 179.73C169.388 178.76 170.117 178.032 171.089 178.032C172.062 178.032 172.791 178.76 172.791 179.73Z" stroke="#437F7F" stroke-width="0.5" stroke-miterlimit="10"/>
</g>
<defs>
<clipPath id="clip0">
<rect width="489" height="232" fill="white" transform="translate(-24)"/>
</clipPath>
</defs>
</svg>
