<svg width="483" height="238" viewBox="0 0 483 238" fill="none" xmlns="http://www.w3.org/2000/svg">
<g clip-path="url(#clip0)">
<path d="M332.9 171.4C330.9 169 329.8 165.9 329.8 162.8C329.8 155.4 335.8 149.3 343.3 149.3C350.7 149.3 356.8 155.3 356.8 162.8C356.8 170.2 350.8 176.3 343.3 176.3C340.5 176.3 337.9 175.5 335.6 173.9" stroke="#437F7F" stroke-width="0.5" stroke-miterlimit="10"/>
<path d="M342.6 162.5V192" stroke="#437F7F" stroke-width="0.5" stroke-miterlimit="10"/>
<path d="M164.8 11.1001C164.8 11.1001 161.3 11.8001 159.9 15.4001C159.9 15.4001 158.3 11.8001 155.1 11.1001" stroke="#437F7F" stroke-width="0.5" stroke-miterlimit="10"/>
<path d="M325.9 21.9H315C314.4 14.8 308.4 9.10005 301.1 9.10005C297.9 9.10005 295 10.2 292.6 12C290.4 5.20005 284.1 0.300049 276.6 0.300049C269.2 0.300049 263 5.10005 260.7 11.7C258.1 9.60005 254.8 8.30005 251.2 8.30005C243.4 8.30005 236.9 14.4001 236.3 22.1H203.3" stroke="#437F7F" stroke-width="0.5" stroke-miterlimit="10"/>
<path d="M465.5 57.3H457.6C457.2 52.1 452.8 48 447.5 48C445.2 48 443 48.8 441.3 50.1C439.7 45.1 435.1 41.5 429.6 41.5C424.2 41.5 419.6 45 418 49.8C416.1 48.2 413.7 47.3 411 47.3C405.3 47.3 400.6 51.7 400.1 57.4H376" stroke="#437F7F" stroke-width="0.5" stroke-miterlimit="10"/>
<path d="M66.2998 179.8L134.9 202.3V92.8L66.2998 70.3V179.8Z" stroke="#437F7F" stroke-width="0.5" stroke-miterlimit="10"/>
<path d="M134.9 185.4L146.2 186.3V76.8L66.2998 70.3V179.8" stroke="#437F7F" stroke-width="0.5" stroke-miterlimit="10"/>
<path d="M146.2 171.1L157.5 169.8V60.3L66.2998 70.3001V179.8" stroke="#437F7F" stroke-width="0.5" stroke-miterlimit="10"/>
<path d="M146.2 61.4V47.7L66.2998 70.3V179.8" stroke="#437F7F" stroke-width="0.5" stroke-miterlimit="10"/>
<path d="M87.2 138.4C83.5 133.8 80.9 128.6 79.5 123.3C84.5 126 89.1 129.7 92.9 134.4C94.5 136.4 96 138.6 97.1 140.8C95.9 136.9 95.3 132.9 95.3 129C95.3 122.2 97.2 116.2 100.6 111.1C104 117.9 105.9 124.9 105.9 131.8C105.9 135.7 105.3 139.3 104.1 142.7C105.3 141.1 106.7 139.7 108.3 138.6C112 135.9 116.6 134.7 121.7 134.6C120.3 139.1 117.7 142.9 114 145.6C111.6 147.3 110.2 148.8 109.4 149.6C112.5 150.4 115.5 152 118.1 154.2C115.4 154.9 112.5 155 109.4 154.1C107.6 153.6 105.8 152.8 104.1 151.8C104.4 152.1 104.7 152.4 104.9 152.7C106 154.1 106.7 155.7 107 157.4C105.3 156.7 103.9 155.7 102.7 154.3C102.1 153.6 101.1 151.9 100.6 150.7C100.1 151.5 99 152.8 98.5 153.2C97.4 154 95.9 154.2 94.2 154C94.5 152.5 95.2 151.2 96.3 150.5C96.6 150.3 96.8 150.2 97.1 150.1C95.4 150.2 93.6 150 91.8 149.5C88.7 148.7 85.7 147.1 83.1 144.9C85.8 144.2 88.7 144.1 91.8 145C90.6 143.1 89.7 141.4 87.2 138.4Z" fill="#BDE8E0"/>
<path d="M100.6 150.7C100.6 150.7 100.6 155.7 100.6 157.1" stroke="#437F7F" stroke-width="0.5" stroke-miterlimit="10"/>
<path d="M49.8 210.3C43.7 217.7 37.4 225.3 29.4 230.7C20.2 237 10.8 237.4 0 237.5" stroke="#437F7F" stroke-width="0.5" stroke-miterlimit="10"/>
<path d="M509.1 141.8C402 141.4 296 141.4 189.5 141.8" stroke="#437F7F" stroke-width="0.5" stroke-miterlimit="10"/>
<path d="M318.599 130.4C319.799 133.5 322.499 135.9 326.799 135.9C327.199 135.9 327.599 135.9 327.899 135.8C328.199 135.8 328.399 135.9 328.699 135.9C332.999 135.9 335.699 133.5 336.899 130.4H377.799V201.6H293.199V130.4H318.599Z" fill="#BDE8E0"/>
<path d="M176.464 201.715L264.864 201.715L264.864 162.915L176.464 162.915L176.464 201.715Z" fill="#BDE8E0"/>
<path d="M176.5 163.2V201.7H250.6V163.8" stroke="#437F7F" stroke-width="0.5" stroke-miterlimit="10"/>
<path d="M238.399 182.1H215.599C213.699 182.1 212.199 180.6 212.199 178.7V175C212.199 173.1 213.699 171.6 215.599 171.6H238.399C240.299 171.6 241.799 173.1 241.799 175V178.7C241.799 180.6 240.299 182.1 238.399 182.1Z" fill="white" stroke="#437F7F" stroke-width="0.5" stroke-miterlimit="10"/>
<path d="M197.899 171.6H190.499C186.799 171.6 183.699 174.6 183.699 178.4V201.8H204.699V178.4C204.699 174.6 201.599 171.6 197.899 171.6Z" stroke="#437F7F" stroke-width="0.5" stroke-miterlimit="10"/>
<path d="M200.399 190H199.799C198.999 190 198.399 189.4 198.399 188.6V187.5C198.399 186.7 198.999 186.1 199.799 186.1H200.399" stroke="#437F7F" stroke-width="0.5" stroke-miterlimit="10"/>
<path d="M223.699 163.2H256.499V151.2H223.699" stroke="#437F7F" stroke-width="0.5" stroke-miterlimit="10"/>
<path d="M224.1 151.2H170.6V163.2H224.1" stroke="#437F7F" stroke-width="0.5" stroke-miterlimit="10"/>
<path d="M171.8 157.2H178.6" stroke="#437F7F" stroke-width="0.5" stroke-miterlimit="10"/>
<path d="M183 157.2H255.9" stroke="#437F7F" stroke-width="0.5" stroke-miterlimit="10"/>
<path d="M217.8 190H236.7" stroke="#437F7F" stroke-width="0.5" stroke-miterlimit="10"/>
<path d="M227.3 190V201.7" stroke="#437F7F" stroke-width="0.5" stroke-miterlimit="10"/>
<path d="M210.1 187.4L212.2 194.9H219.3V200.8" stroke="#437F7F" stroke-width="0.5" stroke-miterlimit="10"/>
<path d="M212.199 194.9V200.8" stroke="#437F7F" stroke-width="0.5" stroke-miterlimit="10"/>
<path d="M244.399 187.4L242.399 194.9H235.199V200.8" stroke="#437F7F" stroke-width="0.5" stroke-miterlimit="10"/>
<path d="M242.399 194.9V200.8" stroke="#437F7F" stroke-width="0.5" stroke-miterlimit="10"/>
<path d="M257.399 151.2H270.599V163.2H264.999V201.7H251.199" stroke="#437F7F" stroke-width="0.5" stroke-miterlimit="10"/>
<path d="M257.3 163.2C257.2 163.3 265 163.2 265 163.2" stroke="#437F7F" stroke-width="0.5" stroke-miterlimit="10"/>
<path d="M331.699 182.7H323.499C319.399 182.7 315.999 186.1 315.999 190.2V201.3H339.199V190.2C339.199 186.1 335.899 182.7 331.699 182.7Z" stroke="#437F7F" stroke-width="0.5" stroke-miterlimit="10"/>
<path d="M327.599 135.9C321.499 135.9 316.499 130.9 316.499 124.8C316.499 118.7 321.499 113.7 327.599 113.7C333.699 113.7 338.699 118.7 338.699 124.8C338.699 130.9 333.699 135.9 327.599 135.9Z" stroke="#437F7F" stroke-width="0.5" stroke-miterlimit="10"/>
<path d="M293.1 130.4V201.6H362.1V130.9" stroke="#437F7F" stroke-width="0.5" stroke-miterlimit="10"/>
<path d="M337.199 130.4H367.599V119.2H337.199" stroke="#437F7F" stroke-width="0.5" stroke-miterlimit="10"/>
<path d="M317.499 119.2H287.699V130.4H317.499" stroke="#437F7F" stroke-width="0.5" stroke-miterlimit="10"/>
<path d="M288.699 124.8H310.599" stroke="#437F7F" stroke-width="0.5" stroke-miterlimit="10"/>
<path d="M344.699 124.8H367.599" stroke="#437F7F" stroke-width="0.5" stroke-miterlimit="10"/>
<path d="M327.6 182.7V201.6" stroke="#437F7F" stroke-width="0.5" stroke-miterlimit="10"/>
<path d="M300.499 188.2H308.899C309.899 188.2 310.699 187.4 310.699 186.4V184.4C310.699 183.4 309.899 182.6 308.899 182.6H300.499C299.499 182.6 298.699 183.4 298.699 184.4V186.4C298.699 187.4 299.499 188.2 300.499 188.2Z" stroke="#437F7F" stroke-width="0.5" stroke-miterlimit="10"/>
<path d="M300.499 197.5H308.899C309.899 197.5 310.699 196.7 310.699 195.7V193.7C310.699 192.7 309.899 191.9 308.899 191.9H300.499C299.499 191.9 298.699 192.7 298.699 193.7V195.7C298.699 196.7 299.499 197.5 300.499 197.5Z" stroke="#437F7F" stroke-width="0.5" stroke-miterlimit="10"/>
<path d="M346.499 188.2H354.899C355.899 188.2 356.699 187.4 356.699 186.4V184.4C356.699 183.4 355.899 182.6 354.899 182.6H346.499C345.499 182.6 344.699 183.4 344.699 184.4V186.4C344.699 187.4 345.499 188.2 346.499 188.2Z" stroke="#437F7F" stroke-width="0.5" stroke-miterlimit="10"/>
<path d="M346.499 197.5H354.899C355.899 197.5 356.699 196.7 356.699 195.7V193.7C356.699 192.7 355.899 191.9 354.899 191.9H346.499C345.499 191.9 344.699 192.7 344.699 193.7V195.7C344.699 196.7 345.499 197.5 346.499 197.5Z" stroke="#437F7F" stroke-width="0.5" stroke-miterlimit="10"/>
<path d="M348.899 173H306.399C302.099 173 298.699 169.5 298.699 165.3V152.5C298.699 148.2 302.199 144.8 306.399 144.8H348.899C353.199 144.8 356.599 148.3 356.599 152.5V165.3C356.599 169.5 353.199 173 348.899 173Z" fill="#FDFFFF" stroke="#437F7F" stroke-width="0.5" stroke-miterlimit="10"/>
<path d="M327.699 172.5V145.8" stroke="#437F7F" stroke-width="0.5" stroke-miterlimit="10"/>
<path d="M313.199 172.5V145.8" stroke="#437F7F" stroke-width="0.5" stroke-miterlimit="10"/>
<path d="M342.1 172.5V145.8" stroke="#437F7F" stroke-width="0.5" stroke-miterlimit="10"/>
<path d="M298.699 158.9H356.099" stroke="#437F7F" stroke-width="0.5" stroke-miterlimit="10"/>
<path d="M366.999 119.2H382.999V130.4H377.699V201.6H362.699" stroke="#437F7F" stroke-width="0.5" stroke-miterlimit="10"/>
<path d="M366.999 124.8H382.999" stroke="#437F7F" stroke-width="0.5" stroke-miterlimit="10"/>
<path d="M366.999 130.4H382.999" stroke="#437F7F" stroke-width="0.5" stroke-miterlimit="10"/>
<path d="M270.399 155.9H279.999V200.8" stroke="#437F7F" stroke-width="0.5" stroke-miterlimit="10"/>
<path d="M268.3 151.2V136.5H293.1" stroke="#437F7F" stroke-width="0.5" stroke-miterlimit="10"/>
<path d="M378.3 157.2H396" stroke="#437F7F" stroke-width="0.5" stroke-miterlimit="10"/>
<path d="M228.5 182.1H214.8" stroke="#437F7F" stroke-width="0.5" stroke-miterlimit="10"/>
<path d="M175.9 202.2H145.4" stroke="#437F7F" stroke-width="0.5" stroke-miterlimit="10"/>
<path d="M376.2 202.2H184.4" stroke="#437F7F" stroke-width="0.5" stroke-miterlimit="10"/>
<path d="M506.8 202.2H384.6" stroke="#437F7F" stroke-width="0.5" stroke-miterlimit="10"/>
<path d="M528.8 225.4H63.5" stroke="#437F7F" stroke-width="0.5" stroke-miterlimit="10"/>
<path d="M410.601 160.7H478.401C481.401 160.7 483.901 158.2 483.901 155.2C483.901 152.2 481.401 149.7 478.401 149.7H410.601C407.601 149.7 405.101 152.2 405.101 155.2C405.101 158.3 407.601 160.7 410.601 160.7Z" stroke="#437F7F" stroke-width="0.5" stroke-miterlimit="10"/>
<path d="M479.5 160.7V202" stroke="#437F7F" stroke-width="0.5" stroke-miterlimit="10"/>
<path d="M409.5 160.7V202" stroke="#437F7F" stroke-width="0.5" stroke-miterlimit="10"/>
<path d="M458.101 160.7V186.1" stroke="#437F7F" stroke-width="0.5" stroke-miterlimit="10"/>
<path d="M430.9 160.7V186.1" stroke="#437F7F" stroke-width="0.5" stroke-miterlimit="10"/>
<path d="M466.2 168.2L474.7 176.7" stroke="#437F7F" stroke-width="0.5" stroke-miterlimit="10"/>
<path d="M469.701 178.3L465.101 173.7" stroke="#437F7F" stroke-width="0.5" stroke-miterlimit="10"/>
<path d="M416.801 168.2L425.301 176.7" stroke="#437F7F" stroke-width="0.5" stroke-miterlimit="10"/>
<path d="M420.401 178.3L415.801 173.7" stroke="#437F7F" stroke-width="0.5" stroke-miterlimit="10"/>
<path d="M479.5 186.1H409.5" stroke="#437F7F" stroke-width="0.5" stroke-miterlimit="10"/>
<path d="M444.7 169.4C449.8 169.4 453.8 173.5 453.8 178.5V185.8H435.5V178.5C435.6 173.5 439.7 169.4 444.7 169.4Z" stroke="#437F7F" stroke-width="0.5" stroke-miterlimit="10"/>
<path d="M409.3 149.8H393.4C390.4 149.8 387.9 152.3 387.9 155.3C387.9 158.3 390.4 160.8 393.4 160.8H409.5" stroke="#437F7F" stroke-width="0.5" stroke-miterlimit="10"/>
<path d="M392.4 160.7V202" stroke="#437F7F" stroke-width="0.5" stroke-miterlimit="10"/>
</g>
<defs>
<clipPath id="clip0">
<rect width="570.6" height="237.8" fill="white"/>
</clipPath>
</defs>
</svg>
