<svg width="155" height="43" viewBox="0 0 155 43" fill="none" xmlns="http://www.w3.org/2000/svg">
<path d="M29.4 19.6808H20.2V28.2808C20.2 28.4808 20.2 28.6808 20.2 28.8808C20.2 33.9808 24.3 38.0808 29.4 38.0808C34.5 38.0808 38.6 33.9808 38.6 28.8808C38.5 23.8808 34.4 19.6808 29.4 19.6808ZM9.5 19.6808H0V38.1808H9.5C14.5 38.0808 18.5 33.9808 18.5 28.9808C18.5 23.8808 14.5 19.7808 9.5 19.6808Z" fill="#30392B"/>
<path d="M53.855 37.2808H47.5422V17.7808H54.0549C55.9656 17.7808 57.6064 18.1711 58.9775 18.9519C60.3486 19.7263 61.3992 20.8403 62.1292 22.2939C62.8655 23.7412 63.2336 25.4773 63.2336 27.5022C63.2336 29.5334 62.8623 31.2791 62.1196 32.739C61.3833 34.199 60.3169 35.3225 58.9204 36.1096C57.5239 36.8904 55.8354 37.2808 53.855 37.2808ZM50.4844 34.71H53.6931C55.1785 34.71 56.4131 34.4307 57.397 33.8721C58.3809 33.3071 59.1172 32.4915 59.606 31.425C60.0947 30.3523 60.3391 29.0447 60.3391 27.5022C60.3391 25.9724 60.0947 24.6743 59.606 23.6079C59.1235 22.5415 58.4031 21.7322 57.4446 21.1799C56.4861 20.6277 55.2959 20.3516 53.874 20.3516H50.4844V34.71Z" fill="#30392B"/>
<path d="M69.5792 37.6045C68.6525 37.6045 67.8146 37.4331 67.0656 37.0903C66.3165 36.7412 65.723 36.2366 65.285 35.5764C64.8534 34.9163 64.6376 34.1069 64.6376 33.1484C64.6376 32.3232 64.7963 31.644 65.1137 31.1108C65.431 30.5776 65.8595 30.1555 66.3991 29.8445C66.9386 29.5334 67.5416 29.2986 68.2081 29.1399C68.8746 28.9812 69.5538 28.8606 70.2457 28.7781C71.1217 28.6765 71.8327 28.594 72.3786 28.5305C72.9245 28.4607 73.3212 28.3496 73.5687 28.1973C73.8163 28.0449 73.9401 27.7974 73.9401 27.4546V27.3879C73.9401 26.5564 73.7052 25.9121 73.2355 25.4551C72.7721 24.998 72.0802 24.7695 71.1598 24.7695C70.2013 24.7695 69.4459 24.9822 68.8937 25.4075C68.3478 25.8264 67.9701 26.293 67.7606 26.8071L65.0851 26.1978C65.4025 25.3091 65.8659 24.5918 66.4752 24.0459C67.091 23.4937 67.7987 23.0937 68.5985 22.8462C69.3983 22.5923 70.2394 22.4653 71.1217 22.4653C71.7057 22.4653 72.3246 22.5352 72.9784 22.6748C73.6386 22.8081 74.2543 23.0557 74.8256 23.4175C75.4032 23.7793 75.8761 24.2966 76.2443 24.9695C76.6124 25.636 76.7965 26.5024 76.7965 27.5688V37.2808H74.0162V35.2812H73.902C73.7179 35.6494 73.4418 36.0112 73.0736 36.3667C72.7055 36.7222 72.2326 37.0173 71.6549 37.2522C71.0773 37.4871 70.3854 37.6045 69.5792 37.6045ZM70.1981 35.3193C70.9852 35.3193 71.6581 35.1638 72.2167 34.8528C72.7816 34.5417 73.2101 34.1355 73.5021 33.634C73.8004 33.1262 73.9496 32.5835 73.9496 32.0059V30.1206C73.848 30.2222 73.6513 30.3174 73.3593 30.4062C73.0736 30.4888 72.7467 30.5618 72.3786 30.6252C72.0104 30.6824 71.6517 30.7363 71.3026 30.7871C70.9535 30.8315 70.6615 30.8696 70.4266 30.9014C69.8744 30.9712 69.3698 31.0886 68.9127 31.2537C68.462 31.4187 68.1002 31.6567 67.8273 31.9678C67.5607 32.2725 67.4274 32.6787 67.4274 33.1865C67.4274 33.8911 67.6876 34.4243 68.2081 34.7861C68.7286 35.1416 69.392 35.3193 70.1981 35.3193Z" fill="#30392B"/>
<path d="M79.2478 37.2808V22.6558H82.0948V37.2808H79.2478ZM80.6856 20.3992C80.1905 20.3992 79.7652 20.2341 79.4097 19.9041C79.0606 19.5676 78.886 19.1677 78.886 18.7043C78.886 18.2346 79.0606 17.8347 79.4097 17.5046C79.7652 17.1682 80.1905 17 80.6856 17C81.1807 17 81.6028 17.1682 81.9519 17.5046C82.3074 17.8347 82.4851 18.2346 82.4851 18.7043C82.4851 19.1677 82.3074 19.5676 81.9519 19.9041C81.6028 20.2341 81.1807 20.3992 80.6856 20.3992Z" fill="#30392B"/>
<path d="M87.4311 17.7808V37.2808H84.5841V17.7808H87.4311Z" fill="#30392B"/>
<path d="M91.72 42.7651C91.2947 42.7651 90.9075 42.7302 90.5584 42.6604C90.2093 42.5969 89.949 42.5271 89.7776 42.4509L90.4632 40.1182C90.9837 40.2578 91.4471 40.3181 91.8533 40.2991C92.2596 40.28 92.6182 40.1277 92.9292 39.842C93.2466 39.5564 93.5259 39.0898 93.7671 38.4424L94.1194 37.4712L88.7684 22.6558H91.8152L95.5191 34.0054H95.6714L99.3753 22.6558H102.432L96.4046 39.2327C96.1253 39.9944 95.7698 40.6387 95.3382 41.1655C94.9065 41.6987 94.3924 42.0986 93.7957 42.3652C93.199 42.6318 92.5071 42.7651 91.72 42.7651Z" fill="#30392B"/>
<path d="M120.191 24.1221H117.22C117.106 23.4873 116.894 22.9287 116.583 22.4463C116.271 21.9639 115.891 21.5544 115.44 21.218C114.989 20.8816 114.485 20.6277 113.926 20.4563C113.374 20.2849 112.787 20.1992 112.165 20.1992C111.041 20.1992 110.035 20.4817 109.146 21.0466C108.264 21.6116 107.566 22.4399 107.052 23.5317C106.544 24.6235 106.29 25.9565 106.29 27.5308C106.29 29.1177 106.544 30.457 107.052 31.5488C107.566 32.6406 108.267 33.4658 109.156 34.0244C110.044 34.583 111.044 34.8623 112.155 34.8623C112.771 34.8623 113.355 34.7798 113.907 34.6147C114.466 34.4434 114.97 34.1926 115.421 33.8625C115.872 33.5325 116.252 33.1294 116.563 32.6533C116.881 32.1709 117.1 31.6187 117.22 30.9966L120.191 31.0061C120.032 31.9646 119.725 32.8469 119.268 33.6531C118.817 34.4529 118.236 35.1448 117.525 35.7288C116.821 36.3064 116.014 36.7539 115.107 37.0713C114.199 37.3887 113.209 37.5474 112.136 37.5474C110.448 37.5474 108.943 37.1475 107.623 36.3477C106.302 35.5415 105.261 34.3894 104.5 32.8914C103.744 31.3933 103.367 29.6064 103.367 27.5308C103.367 25.4487 103.748 23.6619 104.509 22.1702C105.271 20.6721 106.312 19.5232 107.632 18.7234C108.953 17.9172 110.454 17.5142 112.136 17.5142C113.171 17.5142 114.135 17.6633 115.031 17.9617C115.932 18.2537 116.741 18.6853 117.458 19.2566C118.176 19.8215 118.769 20.5134 119.239 21.3323C119.709 22.1448 120.026 23.0747 120.191 24.1221Z" fill="#30392B"/>
<path d="M122.371 37.2808V17.7808H129.512C130.896 17.7808 132.042 18.0093 132.949 18.4663C133.857 18.917 134.536 19.5295 134.987 20.304C135.438 21.072 135.663 21.9385 135.663 22.9033C135.663 23.7158 135.514 24.4014 135.216 24.96C134.917 25.5122 134.517 25.9565 134.016 26.293C133.521 26.623 132.975 26.8643 132.378 27.0166V27.207C133.026 27.2388 133.657 27.4482 134.273 27.8354C134.895 28.2163 135.409 28.759 135.815 29.4636C136.222 30.1682 136.425 31.0251 136.425 32.0344C136.425 33.031 136.19 33.926 135.72 34.7195C135.257 35.5066 134.54 36.1318 133.568 36.5952C132.597 37.0522 131.356 37.2808 129.845 37.2808H122.371ZM125.313 34.7576H129.56C130.969 34.7576 131.978 34.4846 132.588 33.9387C133.197 33.3928 133.502 32.7104 133.502 31.8916C133.502 31.2759 133.346 30.7109 133.035 30.1968C132.724 29.6826 132.28 29.2732 131.702 28.9685C131.131 28.6638 130.452 28.5115 129.665 28.5115H125.313V34.7576ZM125.313 26.2168H129.255C129.915 26.2168 130.509 26.0898 131.036 25.8359C131.569 25.582 131.991 25.2266 132.302 24.7695C132.619 24.3062 132.778 23.7603 132.778 23.1318C132.778 22.3257 132.496 21.6497 131.931 21.1038C131.366 20.5579 130.499 20.2849 129.331 20.2849H125.313V26.2168Z" fill="#30392B"/>
<path d="M144.887 37.2808H138.574V17.7808H145.087C146.997 17.7808 148.638 18.1711 150.009 18.9519C151.38 19.7263 152.431 20.8403 153.161 22.2939C153.897 23.7412 154.265 25.4773 154.265 27.5022C154.265 29.5334 153.894 31.2791 153.151 32.739C152.415 34.199 151.348 35.3225 149.952 36.1096C148.556 36.8904 146.867 37.2808 144.887 37.2808ZM141.516 34.71H144.725C146.21 34.71 147.445 34.4307 148.429 33.8721C149.412 33.3071 150.149 32.4915 150.638 31.425C151.126 30.3523 151.371 29.0447 151.371 27.5022C151.371 25.9724 151.126 24.6743 150.638 23.6079C150.155 22.5415 149.435 21.7322 148.476 21.1799C147.518 20.6277 146.327 20.3516 144.906 20.3516H141.516V34.71Z" fill="#30392B"/>
<path d="M118.998 14.1982C118.356 14.1982 117.804 14.114 117.341 13.9457C116.881 13.7774 116.506 13.5547 116.215 13.2777C115.924 13.0006 115.707 12.6973 115.563 12.3677L116.915 11.8101C117.009 11.9644 117.136 12.1274 117.293 12.2993C117.455 12.4746 117.672 12.6236 117.946 12.7464C118.223 12.8691 118.579 12.9305 119.014 12.9305C119.61 12.9305 120.102 12.785 120.492 12.4939C120.881 12.2063 121.076 11.747 121.076 11.1157V9.52719H120.976C120.881 9.69902 120.744 9.89014 120.565 10.1005C120.39 10.3109 120.148 10.4933 119.839 10.6476C119.531 10.8019 119.129 10.879 118.635 10.879C117.997 10.879 117.421 10.73 116.909 10.4319C116.401 10.1304 115.998 9.68675 115.7 9.10112C115.405 8.51199 115.258 7.78784 115.258 6.92869C115.258 6.06954 115.403 5.33312 115.694 4.71944C115.989 4.10576 116.392 3.63585 116.904 3.30973C117.416 2.98009 117.997 2.81528 118.645 2.81528C119.147 2.81528 119.552 2.89944 119.86 3.06776C120.169 3.23258 120.409 3.42545 120.581 3.64637C120.756 3.8673 120.891 4.06192 120.986 4.23025H121.102V2.92048H122.643V11.1789C122.643 11.8732 122.482 12.443 122.159 12.8884C121.836 13.3338 121.4 13.6634 120.849 13.8773C120.302 14.0912 119.685 14.1982 118.998 14.1982ZM118.982 9.57453C119.434 9.57453 119.817 9.46933 120.129 9.25892C120.444 9.04501 120.683 8.73992 120.844 8.34366C121.009 7.94389 121.091 7.46522 121.091 6.90765C121.091 6.3641 121.011 5.88543 120.849 5.47164C120.688 5.05784 120.451 4.73522 120.139 4.50377C119.827 4.26882 119.441 4.15135 118.982 4.15135C118.509 4.15135 118.114 4.27408 117.798 4.51955C117.483 4.76152 117.244 5.09115 117.083 5.50846C116.925 5.92576 116.846 6.39216 116.846 6.90765C116.846 7.43717 116.927 7.90181 117.088 8.30158C117.25 8.70135 117.488 9.01345 117.804 9.23788C118.123 9.46231 118.516 9.57453 118.982 9.57453Z" fill="#30392B"/>
<path d="M125.584 0.227295V11H124.012V0.227295H125.584Z" fill="#30392B"/>
<path d="M130.363 11.1631C129.606 11.1631 128.945 10.9895 128.38 10.6423C127.815 10.2952 127.377 9.80948 127.065 9.18528C126.753 8.56108 126.597 7.83168 126.597 6.99707C126.597 6.15896 126.753 5.42605 127.065 4.79834C127.377 4.17063 127.815 3.68319 128.38 3.33603C128.945 2.98886 129.606 2.81528 130.363 2.81528C131.12 2.81528 131.782 2.98886 132.346 3.33603C132.911 3.68319 133.349 4.17063 133.661 4.79834C133.973 5.42605 134.129 6.15896 134.129 6.99707C134.129 7.83168 133.973 8.56108 133.661 9.18528C133.349 9.80948 132.911 10.2952 132.346 10.6423C131.782 10.9895 131.12 11.1631 130.363 11.1631ZM130.368 9.8428C130.859 9.8428 131.266 9.71305 131.589 9.45355C131.911 9.19405 132.15 8.84863 132.304 8.4173C132.462 7.98597 132.541 7.51081 132.541 6.99181C132.541 6.47632 132.462 6.00291 132.304 5.57158C132.15 5.13674 131.911 4.78782 131.589 4.52481C131.266 4.26181 130.859 4.1303 130.368 4.1303C129.874 4.1303 129.464 4.26181 129.137 4.52481C128.815 4.78782 128.575 5.13674 128.417 5.57158C128.262 6.00291 128.185 6.47632 128.185 6.99181C128.185 7.51081 128.262 7.98597 128.417 8.4173C128.575 8.84863 128.815 9.19405 129.137 9.45355C129.464 9.71305 129.874 9.8428 130.368 9.8428Z" fill="#30392B"/>
<path d="M135.27 11V0.227295H136.843V4.23025H136.938C137.029 4.06192 137.161 3.8673 137.332 3.64637C137.504 3.42545 137.743 3.23258 138.048 3.06776C138.353 2.89944 138.756 2.81528 139.258 2.81528C139.91 2.81528 140.492 2.98009 141.004 3.30973C141.516 3.63936 141.918 4.11452 142.209 4.73522C142.503 5.35591 142.65 6.10285 142.65 6.97603C142.65 7.84921 142.505 8.5979 142.214 9.2221C141.923 9.8428 141.523 10.3215 141.015 10.6581C140.506 10.9913 139.926 11.1578 139.273 11.1578C138.782 11.1578 138.381 11.0754 138.069 10.9106C137.76 10.7458 137.518 10.5529 137.343 10.332C137.168 10.1111 137.033 9.91468 136.938 9.74285H136.806V11H135.27ZM136.812 6.96025C136.812 7.52834 136.894 8.0263 137.059 8.45412C137.224 8.88195 137.462 9.21684 137.774 9.45881C138.086 9.69727 138.469 9.8165 138.921 9.8165C139.391 9.8165 139.784 9.69201 140.099 9.44303C140.415 9.19054 140.653 8.84863 140.815 8.4173C140.979 7.98597 141.062 7.50029 141.062 6.96025C141.062 6.42722 140.981 5.94855 140.82 5.52424C140.662 5.09992 140.424 4.76503 140.105 4.51955C139.789 4.27408 139.394 4.15135 138.921 4.15135C138.465 4.15135 138.079 4.26882 137.764 4.50377C137.452 4.73873 137.215 5.06661 137.054 5.48742C136.892 5.90823 136.812 6.39917 136.812 6.96025Z" fill="#30392B"/>
<path d="M146.027 11.1789C145.515 11.1789 145.052 11.0842 144.638 10.8948C144.225 10.702 143.897 10.4232 143.655 10.0585C143.416 9.69376 143.297 9.24665 143.297 8.71713C143.297 8.26125 143.385 7.88603 143.56 7.59146C143.735 7.2969 143.972 7.0637 144.27 6.89187C144.568 6.72004 144.901 6.59029 145.27 6.50262C145.638 6.41495 146.013 6.34832 146.395 6.30273C146.879 6.24663 147.272 6.20104 147.574 6.16597C147.875 6.1274 148.094 6.06603 148.231 5.98187C148.368 5.89771 148.436 5.76094 148.436 5.57158V5.53476C148.436 5.07537 148.307 4.71944 148.047 4.46695C147.791 4.21447 147.409 4.08822 146.9 4.08822C146.371 4.08822 145.954 4.2057 145.648 4.44065C145.347 4.6721 145.138 4.92984 145.022 5.21389L143.544 4.87724C143.72 4.3863 143.976 3.99003 144.312 3.68845C144.653 3.38337 145.044 3.16244 145.485 3.02568C145.927 2.88541 146.392 2.81528 146.879 2.81528C147.202 2.81528 147.544 2.85385 147.905 2.931C148.27 3.00464 148.61 3.1414 148.925 3.34129C149.245 3.54117 149.506 3.82697 149.709 4.19869C149.913 4.5669 150.014 5.04557 150.014 5.6347V11H148.478V9.8954H148.415C148.314 10.0988 148.161 10.2987 147.958 10.4951C147.754 10.6914 147.493 10.8545 147.174 10.9842C146.855 11.114 146.473 11.1789 146.027 11.1789ZM146.369 9.91644C146.804 9.91644 147.176 9.83052 147.484 9.65869C147.796 9.48686 148.033 9.26243 148.194 8.9854C148.359 8.70486 148.442 8.40503 148.442 8.08592V7.04441C148.385 7.10052 148.277 7.15312 148.115 7.20222C147.958 7.2478 147.777 7.28813 147.574 7.3232C147.37 7.35476 147.172 7.38457 146.979 7.41262C146.786 7.43717 146.625 7.45821 146.495 7.47574C146.19 7.51432 145.911 7.57919 145.659 7.67037C145.41 7.76154 145.21 7.89304 145.059 8.06487C144.912 8.2332 144.838 8.45763 144.838 8.73817C144.838 9.12742 144.982 9.42199 145.27 9.62187C145.557 9.81825 145.924 9.91644 146.369 9.91644Z" fill="#30392B"/>
<path d="M152.941 0.227295V11H151.369V0.227295H152.941Z" fill="#30392B"/>
</svg>
